# God of War II PS2 Case
o GodOfWarIICase
mtllib GodOfWarIICase.mtl
usemtl GodOfWarIICase
v -0.0675 -0.095 0.0075
v 0.0675 -0.095 0.0075
v 0.0675 0.095 0.0075
v -0.0675 0.095 0.0075
v -0.0675 -0.095 -0.0075
v 0.0675 -0.095 -0.0075
v 0.0675 0.095 -0.0075
v -0.0675 0.095 -0.0075
vt 0.107421875 0
vt 1 0
vt 1 1
vt 0.107421875 1
vt 0 0
vt 0.107421875 0
vt 0.107421875 1
vt 0 1
vt 0.02 0.02
vt 0.08 0.02
vt 0.08 0.08
vt 0.02 0.08
vn 0 0 1
vn 0 0 -1
vn -1 0 0
vn 1 0 0
vn 0 1 0
vn 0 -1 0
f 1/1/1 2/2/1 3/3/1
f 1/1/1 3/3/1 4/4/1
f 5/9/2 8/12/2 7/11/2
f 5/9/2 7/11/2 6/10/2
f 1/6/3 4/7/3 8/8/3
f 1/6/3 8/8/3 5/5/3
f 2/9/4 6/10/4 7/11/4
f 2/9/4 7/11/4 3/12/4
f 4/9/5 3/10/5 7/11/5
f 4/9/5 7/11/5 8/12/5
f 1/9/6 5/12/6 6/11/6
f 1/9/6 6/11/6 2/10/6
